<?xml version="1.0" standalone="no"?>
<!DOCTYPE svg PUBLIC "-//W3C//DTD SVG 20010904//EN" "http://www.w3.org/TR/2001/REC-SVG-20010904/DTD/svg10.dtd">
<svg version="1.0" xmlns="http://www.w3.org/2000/svg" width="948" height="1024" viewBox="0 0 948 1024" preserveAspectRatio="xMidYMid meet">
<g transform="translate(0,1024) scale(0.1,-0.1)" fill="#d6d6d6" stroke="none">
<path d="M4671 10226 c-49 -18 -111 -74 -132 -120 -18 -39 -19 -89 -19 -1098
0 -644 -4 -1059 -9 -1063 -5 -3 -69 29 -141 71 -144 82 -411 232 -640 357 -80
43 -185 103 -235 132 -87 51 -243 137 -530 296 -77 42 -194 107 -260 144 -157
87 -177 95 -245 95 -121 0 -203 -65 -229 -181 -7 -30 2 -371 30 -1128 21 -597
39 -1092 39 -1098 0 -7 -7 -13 -15 -13 -12 0 -190 97 -220 120 -5 4 -95 57
-200 117 -104 60 -278 161 -385 223 -211 123 -479 278 -740 428 -225 130 -238
135 -321 130 -80 -4 -134 -36 -183 -106 -52 -73 -47 -192 11 -269 24 -33 121
-93 588 -363 127 -73 293 -170 370 -215 141 -83 506 -295 690 -401 169 -97
167 -80 13 -171 -73 -44 -225 -133 -338 -198 -113 -65 -268 -155 -345 -200
-77 -45 -187 -109 -245 -142 -91 -52 -520 -301 -810 -471 -52 -31 -112 -73
-132 -94 l-38 -39 0 -114 c0 -114 0 -115 31 -150 20 -22 160 -112 378 -242
190 -113 414 -247 496 -296 83 -49 191 -113 240 -142 84 -48 305 -180 475
-283 41 -25 135 -81 209 -125 111 -66 131 -81 120 -92 -14 -14 -155 -98 -448
-267 -85 -49 -202 -118 -260 -152 -58 -35 -200 -119 -316 -186 -116 -68 -284
-167 -375 -220 -91 -54 -221 -130 -290 -171 -151 -88 -194 -129 -216 -206 -55
-188 139 -344 321 -260 28 13 136 74 240 136 219 131 497 294 740 438 267 157
557 329 710 420 76 45 142 80 146 75 3 -4 12 -189 18 -412 50 -1618 56 -1753
80 -1802 30 -63 79 -104 147 -124 97 -28 175 -2 360 119 75 48 432 268 529
325 33 19 116 69 185 112 245 151 446 274 505 308 33 19 125 76 205 125 149
93 275 167 285 167 3 0 5 -401 5 -890 0 -800 2 -894 16 -923 51 -100 168 -156
270 -128 52 14 122 74 145 125 18 39 19 88 19 929 0 488 3 887 7 887 11 0 130
-67 273 -154 74 -46 236 -142 360 -216 124 -73 270 -160 325 -193 55 -33 159
-94 230 -136 72 -42 184 -109 250 -149 522 -320 544 -331 628 -317 97 16 154
58 193 140 29 62 30 99 9 660 -8 220 -19 558 -25 750 -6 193 -15 465 -20 605
-5 140 -7 256 -4 259 6 6 91 -40 274 -146 206 -120 430 -248 535 -305 50 -28
146 -83 215 -123 171 -99 390 -224 540 -308 69 -38 172 -97 230 -131 169 -100
193 -109 259 -103 70 6 131 36 165 80 75 99 75 220 0 310 -34 41 -62 59 -214
144 -69 38 -233 132 -365 208 -132 76 -280 160 -329 187 -49 27 -148 84 -220
127 -72 43 -176 103 -231 133 -55 30 -145 82 -201 116 -56 33 -116 68 -135 77
-72 36 -259 148 -259 155 0 7 381 190 394 190 3 0 83 37 178 81 95 45 236 110
313 144 77 35 210 95 295 135 442 205 562 261 639 294 92 40 162 85 186 118
11 17 15 51 15 144 0 118 -1 124 -26 154 -15 17 -52 47 -83 67 -64 41 -656
407 -716 443 -22 13 -98 60 -170 105 -71 45 -209 131 -305 190 -96 59 -236
146 -310 193 -74 47 -215 134 -313 195 -98 60 -175 113 -170 118 10 10 163
103 288 174 134 78 369 215 555 325 91 53 242 142 335 197 94 55 247 145 340
200 94 55 202 118 240 141 76 43 104 69 129 118 56 112 7 249 -111 308 -46 23
-134 21 -186 -5 -41 -21 -130 -72 -422 -244 -77 -46 -234 -138 -350 -206 -115
-67 -300 -175 -410 -240 -630 -370 -603 -354 -610 -347 -3 3 1 191 10 419 8
228 22 637 30 909 9 272 20 585 24 695 7 162 6 210 -6 254 -28 111 -104 166
-228 166 -78 0 -46 15 -405 -190 -262 -149 -505 -287 -725 -410 -115 -65 -266
-150 -335 -190 -69 -40 -172 -98 -230 -130 -57 -31 -157 -88 -221 -125 -65
-38 -120 -66 -123 -63 -3 4 -6 477 -6 1052 0 726 -3 1058 -11 1086 -14 51 -93
130 -146 144 -49 14 -99 13 -142 -3z m2109 -1818 c0 -16 -26 -786 -40 -1203
-6 -170 -15 -418 -20 -550 -6 -132 -10 -261 -10 -286 0 -45 -1 -47 -57 -81
-32 -19 -85 -50 -118 -68 -33 -19 -125 -72 -205 -120 -80 -48 -215 -127 -300
-177 -458 -267 -607 -354 -725 -424 -230 -136 -320 -186 -327 -182 -5 2 -8
472 -8 1044 l0 1040 31 17 c17 9 81 46 143 81 120 68 351 199 536 304 63 36
187 107 275 157 202 116 344 196 565 320 97 54 191 107 210 119 40 24 50 26
50 9z m-3880 -106 c63 -35 192 -107 285 -159 94 -53 247 -138 340 -191 94 -52
240 -134 325 -182 221 -125 420 -236 530 -296 52 -29 105 -60 118 -69 l22 -16
0 -1029 c0 -891 -2 -1030 -14 -1030 -8 0 -81 39 -163 87 -201 117 -475 276
-608 353 -60 34 -157 91 -215 125 -112 67 -328 193 -580 337 -85 49 -158 93
-162 96 -6 7 -20 368 -53 1367 -8 237 -17 489 -21 562 -3 72 -3 137 1 143 5 7
18 4 43 -11 21 -13 89 -51 152 -87z m-357 -2399 c18 -9 91 -51 162 -93 156
-92 352 -206 695 -405 140 -81 309 -180 375 -220 66 -40 136 -80 155 -90 86
-43 339 -198 335 -205 -2 -4 -75 -49 -162 -100 -87 -52 -216 -128 -288 -170
-71 -43 -229 -135 -350 -205 -121 -70 -294 -171 -385 -225 -243 -143 -570
-334 -606 -355 l-31 -18 -154 90 c-85 50 -242 143 -349 208 -107 64 -269 161
-360 214 -91 54 -237 141 -325 193 -88 52 -248 147 -355 211 -107 63 -196 119
-197 124 -1 4 39 32 90 60 246 140 1113 647 1547 904 91 54 166 98 168 99 2 0
17 -7 35 -17z m4458 -47 c46 -30 165 -104 264 -165 99 -61 236 -146 305 -190
69 -43 229 -142 355 -221 127 -79 302 -188 390 -243 88 -55 224 -138 303 -186
78 -47 142 -91 142 -98 0 -6 -10 -15 -22 -19 -13 -4 -90 -38 -173 -77 -82 -38
-226 -104 -320 -147 -93 -43 -235 -108 -315 -145 -80 -37 -253 -116 -385 -177
-132 -61 -320 -148 -419 -194 l-178 -84 -77 43 c-42 24 -168 97 -281 162 -113
65 -241 138 -285 163 -44 24 -181 103 -305 174 -124 72 -263 153 -310 180
-396 228 -473 274 -473 283 0 5 69 49 154 98 85 48 222 127 304 176 243 144
476 280 710 416 121 71 287 168 369 217 82 48 152 88 156 88 3 0 44 -24 91
-54z m-2481 -2350 l0 -983 -22 -20 c-13 -11 -90 -60 -173 -110 -82 -49 -256
-154 -385 -233 -129 -78 -289 -175 -355 -215 -66 -40 -192 -116 -280 -170
-327 -200 -558 -336 -562 -331 -5 5 -9 111 -43 1096 -11 322 -22 650 -25 730
l-6 145 33 21 c35 22 134 81 458 272 107 63 265 156 350 207 85 51 250 147
365 215 116 68 280 164 365 215 223 132 263 154 272 149 4 -3 8 -447 8 -988z
m508 950 c26 -13 137 -76 247 -140 110 -63 268 -154 350 -202 142 -81 328
-189 705 -406 91 -53 212 -122 270 -155 l105 -60 7 -74 c3 -41 11 -236 17
-434 6 -198 18 -562 26 -810 8 -247 16 -510 18 -583 3 -73 1 -135 -3 -137 -4
-3 -41 15 -81 39 -41 24 -153 91 -249 148 -96 58 -258 154 -360 215 -536 318
-944 561 -1020 607 l-85 51 -3 983 c-1 540 0 982 3 982 3 0 27 -11 53 -24z"/>
</g>
</svg>